<svg width="287" height="39" viewBox="0 0 287 39" fill="none" xmlns="http://www.w3.org/2000/svg">
<mask id="mask0_3069_731" style="mask-type:luminance" maskUnits="userSpaceOnUse" x="0" y="0" width="36" height="36">
<path d="M36 0H0V36H36V0Z" fill="white"/>
</mask>
<g mask="url(#mask0_3069_731)">
<path d="M17.9986 5.53423L35.5997 0.348633L30.464 17.9996L35.5997 35.6007L17.9986 30.465L0.347656 35.6007L5.53325 17.9996L0.347656 0.348633L17.9986 5.53423Z" fill="black"/>
</g>
<path d="M47 31.0058V4.07816H64.1737V7.5756H51.1329V15.7801H63.2775V19.2644H51.1329V27.5084H64.3342V31.0058H47Z" fill="black"/>
<path d="M73.3724 4.07816V31.0058H69.3733V4.07816H73.3724Z" fill="black"/>
<path d="M87.6069 31.4134C85.5828 31.4134 83.8396 30.9883 82.3772 30.1381C80.9238 29.279 79.8003 28.0738 79.0067 26.5223C78.222 24.962 77.8297 23.1344 77.8297 21.0394C77.8297 18.9708 78.222 17.1476 79.0067 15.5698C79.8003 13.992 80.906 12.7604 82.3237 11.8751C83.7504 10.9898 85.4178 10.5471 87.326 10.5471C88.4852 10.5471 89.6087 10.7356 90.6966 11.1125C91.7844 11.4894 92.7608 12.0811 93.6257 12.8875C94.4906 13.6939 95.1728 14.7414 95.6721 16.0299C96.1714 17.3097 96.4211 18.8656 96.4211 20.6976V22.0913H80.0901V19.1461H92.5022C92.5022 18.1118 92.2882 17.1958 91.8602 16.3981C91.4322 15.5917 90.8303 14.9562 90.0545 14.4916C89.2877 14.027 88.3871 13.7947 87.3528 13.7947C86.2293 13.7947 85.2484 14.0665 84.4102 14.6099C83.581 15.1446 82.939 15.8459 82.4842 16.7137C82.0384 17.5727 81.8155 18.5062 81.8155 19.5142V21.8152C81.8155 23.1651 82.0562 24.3134 82.5377 25.26C83.0281 26.2067 83.7103 26.9299 84.5841 27.4295C85.458 27.9204 86.4789 28.1658 87.647 28.1658C88.4049 28.1658 89.096 28.0606 89.7202 27.8503C90.3443 27.6311 90.8838 27.3068 91.3386 26.8773C91.7933 26.4478 92.1411 25.9175 92.3818 25.2863L96.167 25.9569C95.8638 27.0526 95.3199 28.0124 94.5352 28.8364C93.7595 29.6516 92.7831 30.2871 91.6061 30.7429C90.438 31.1899 89.1049 31.4134 87.6069 31.4134Z" fill="black"/>
<path d="M117.845 10.8101L110.395 31.0058H106.115L98.6514 10.8101H102.945L108.148 26.3514H108.362L113.551 10.8101H117.845Z" fill="black"/>
<path d="M126.993 31.4529C125.691 31.4529 124.514 31.2162 123.462 30.7429C122.41 30.2608 121.576 29.5639 120.961 28.6523C120.355 27.7407 120.052 26.6231 120.052 25.2995C120.052 24.16 120.275 23.2221 120.72 22.4858C121.166 21.7495 121.768 21.1665 122.526 20.737C123.284 20.3075 124.131 19.9832 125.067 19.7641C126.004 19.5449 126.958 19.3784 127.93 19.2644C129.16 19.1242 130.159 19.0102 130.926 18.9226C131.692 18.8262 132.25 18.6728 132.597 18.4624C132.945 18.252 133.119 17.9102 133.119 17.4368V17.3448C133.119 16.1965 132.789 15.3068 132.129 14.6757C131.478 14.0446 130.507 13.729 129.214 13.729C127.867 13.729 126.806 14.0226 126.03 14.6099C125.263 15.1885 124.733 15.8327 124.439 16.5427L120.68 15.7012C121.126 14.4741 121.777 13.4836 122.633 12.7297C123.498 11.9671 124.492 11.4149 125.616 11.073C126.739 10.7224 127.921 10.5471 129.16 10.5471C129.98 10.5471 130.85 10.6435 131.768 10.8364C132.696 11.0205 133.561 11.3623 134.363 11.8619C135.174 12.3616 135.839 13.076 136.356 14.0051C136.873 14.9255 137.132 16.122 137.132 17.5946V31.0058H133.226V28.2447H133.066C132.807 28.7531 132.419 29.2527 131.902 29.7436C131.385 30.2345 130.721 30.6421 129.909 30.9664C129.098 31.2907 128.126 31.4529 126.993 31.4529ZM127.863 28.2973C128.968 28.2973 129.914 28.0825 130.698 27.653C131.492 27.2235 132.094 26.6625 132.504 25.9701C132.923 25.2688 133.132 24.5194 133.132 23.7217V21.1183C132.99 21.2586 132.713 21.3901 132.303 21.5128C131.902 21.6267 131.443 21.7275 130.926 21.8152C130.408 21.8941 129.905 21.9686 129.414 22.0387C128.924 22.1001 128.514 22.1527 128.184 22.1965C127.408 22.2929 126.699 22.4551 126.057 22.683C125.424 22.9109 124.916 23.2396 124.532 23.6691C124.158 24.0898 123.971 24.6508 123.971 25.3521C123.971 26.3251 124.336 27.0614 125.067 27.561C125.798 28.0519 126.73 28.2973 127.863 28.2973Z" fill="black"/>
<path d="M152.048 10.8101V13.9657H140.827V10.8101H152.048ZM143.836 5.97151H147.835V25.076C147.835 25.8386 147.951 26.4127 148.183 26.7984C148.415 27.1753 148.713 27.4339 149.079 27.5741C149.454 27.7056 149.859 27.7714 150.296 27.7714C150.617 27.7714 150.898 27.7495 151.139 27.7056C151.38 27.6618 151.567 27.6267 151.701 27.6004L152.423 30.8481C152.191 30.9357 151.861 31.0234 151.433 31.111C151.005 31.2074 150.47 31.26 149.828 31.2688C148.776 31.2863 147.795 31.1023 146.885 30.7166C145.976 30.3309 145.24 29.7348 144.679 28.9284C144.117 28.122 143.836 27.1096 143.836 25.8912V5.97151Z" fill="black"/>
<path d="M165.106 31.4134C163.082 31.4134 161.338 30.9883 159.876 30.1381C158.423 29.279 157.299 28.0738 156.506 26.5223C155.721 24.962 155.329 23.1344 155.329 21.0394C155.329 18.9708 155.721 17.1476 156.506 15.5698C157.299 13.992 158.405 12.7604 159.823 11.8751C161.249 10.9898 162.917 10.5471 164.825 10.5471C165.984 10.5471 167.108 10.7356 168.195 11.1125C169.283 11.4894 170.26 12.0811 171.125 12.8875C171.989 13.6939 172.672 14.7414 173.171 16.0299C173.67 17.3097 173.92 18.8656 173.92 20.6976V22.0913H157.589V19.1461H170.001C170.001 18.1118 169.787 17.1958 169.359 16.3981C168.931 15.5917 168.329 14.9562 167.553 14.4916C166.787 14.027 165.886 13.7947 164.852 13.7947C163.728 13.7947 162.747 14.0665 161.909 14.6099C161.08 15.1446 160.438 15.8459 159.983 16.7137C159.537 17.5727 159.314 18.5062 159.314 19.5142V21.8152C159.314 23.1651 159.555 24.3134 160.037 25.26C160.527 26.2067 161.209 26.9299 162.083 27.4295C162.957 27.9204 163.978 28.1658 165.146 28.1658C165.904 28.1658 166.595 28.0606 167.219 27.8503C167.843 27.6311 168.383 27.3068 168.837 26.8773C169.292 26.4478 169.64 25.9175 169.881 25.2863L173.666 25.9569C173.363 27.0526 172.819 28.0124 172.034 28.8364C171.258 29.6516 170.282 30.2871 169.105 30.7429C167.937 31.1899 166.604 31.4134 165.106 31.4134Z" fill="black"/>
<path d="M187.546 31.0058H178.678V4.07816H187.827C190.511 4.07816 192.816 4.61724 194.742 5.6954C196.668 6.76479 198.143 8.30314 199.169 10.3104C200.203 12.309 200.72 14.7064 200.72 17.5026C200.72 20.3075 200.199 22.718 199.155 24.7341C198.121 26.7502 196.623 28.3017 194.661 29.3886C192.7 30.4668 190.328 31.0058 187.546 31.0058ZM182.811 27.4558H187.319C189.405 27.4558 191.139 27.0701 192.521 26.2988C193.904 25.5186 194.938 24.3923 195.624 22.9197C196.311 21.4383 196.654 19.6326 196.654 17.5026C196.654 15.3901 196.311 13.5975 195.624 12.1249C194.947 10.6523 193.935 9.5347 192.588 8.7721C191.242 8.0095 189.57 7.6282 187.573 7.6282H182.811V27.4558Z" fill="black"/>
<path d="M205.539 31.0058V10.8101H209.538V31.0058H205.539ZM207.558 7.69394C206.863 7.69394 206.265 7.46603 205.766 7.01023C205.276 6.54565 205.031 5.99343 205.031 5.35354C205.031 4.70489 205.276 4.15267 205.766 3.69686C206.265 3.23229 206.863 3 207.558 3C208.254 3 208.847 3.23229 209.337 3.69686C209.837 4.15267 210.086 4.70489 210.086 5.35354C210.086 5.99343 209.837 6.54565 209.337 7.01023C208.847 7.46603 208.254 7.69394 207.558 7.69394Z" fill="black"/>
<path d="M223.532 39C221.9 39 220.496 38.7896 219.319 38.3689C218.15 37.9481 217.196 37.3915 216.456 36.699C215.716 36.0066 215.163 35.2484 214.798 34.4244L218.235 33.0307C218.476 33.4164 218.797 33.824 219.198 34.2535C219.608 34.6917 220.161 35.0643 220.857 35.3711C221.561 35.6779 222.466 35.8313 223.572 35.8313C225.088 35.8313 226.34 35.4675 227.33 34.74C228.32 34.0212 228.815 32.8729 228.815 31.2951V27.3243H228.561C228.32 27.7538 227.972 28.2316 227.517 28.7575C227.072 29.2834 226.456 29.7392 225.672 30.1249C224.887 30.5106 223.866 30.7034 222.609 30.7034C220.986 30.7034 219.524 30.3309 218.222 29.5858C216.929 28.832 215.903 27.7232 215.145 26.2593C214.396 24.7867 214.022 22.9766 214.022 20.8291C214.022 18.6815 214.392 16.8408 215.132 15.3068C215.881 13.7728 216.907 12.5982 218.208 11.7831C219.51 10.9591 220.986 10.5471 222.636 10.5471C223.911 10.5471 224.941 10.7575 225.725 11.1782C226.51 11.5902 227.121 12.0723 227.558 12.6245C228.003 13.1768 228.347 13.6633 228.587 14.084H228.882V10.8101H232.801V31.4529C232.801 33.1885 232.39 34.6129 231.57 35.7261C230.75 36.8393 229.64 37.6633 228.24 38.198C226.849 38.7327 225.279 39 223.532 39ZM223.492 27.4427C224.642 27.4427 225.614 27.1797 226.407 26.6538C227.21 26.1191 227.816 25.3565 228.226 24.366C228.645 23.3667 228.855 22.1702 228.855 20.7765C228.855 19.4178 228.65 18.2213 228.24 17.187C227.83 16.1527 227.228 15.3462 226.434 14.7677C225.64 14.1804 224.66 13.8868 223.492 13.8868C222.288 13.8868 221.285 14.1936 220.482 14.8072C219.68 15.412 219.073 16.2359 218.663 17.279C218.262 18.3221 218.061 19.4879 218.061 20.7765C218.061 22.1001 218.266 23.2615 218.676 24.2608C219.087 25.26 219.693 26.0402 220.496 26.6012C221.307 27.1622 222.306 27.4427 223.492 27.4427Z" fill="black"/>
<path d="M238.164 31.0058V10.8101H242.163V31.0058H238.164ZM240.184 7.69394C239.488 7.69394 238.891 7.46603 238.391 7.01023C237.901 6.54565 237.656 5.99343 237.656 5.35354C237.656 4.70489 237.901 4.15267 238.391 3.69686C238.891 3.23229 239.488 3 240.184 3C240.879 3 241.472 3.23229 241.963 3.69686C242.462 4.15267 242.712 4.70489 242.712 5.35354C242.712 5.99343 242.462 6.54565 241.963 7.01023C241.472 7.46603 240.879 7.69394 240.184 7.69394Z" fill="black"/>
<path d="M257.133 10.8101V13.9657H245.912V10.8101H257.133ZM248.921 5.97151H252.92V25.076C252.92 25.8386 253.036 26.4127 253.268 26.7984C253.5 27.1753 253.798 27.4339 254.164 27.5741C254.539 27.7056 254.944 27.7714 255.381 27.7714C255.702 27.7714 255.983 27.7495 256.224 27.7056C256.465 27.6618 256.652 27.6267 256.786 27.6004L257.508 30.8481C257.276 30.9357 256.946 31.0234 256.518 31.111C256.09 31.2074 255.555 31.26 254.913 31.2688C253.861 31.2863 252.88 31.1023 251.971 30.7166C251.061 30.3309 250.325 29.7348 249.764 28.9284C249.202 28.122 248.921 27.1096 248.921 25.8912V5.97151Z" fill="black"/>
<path d="M267.536 31.4529C266.234 31.4529 265.057 31.2162 264.005 30.7429C262.953 30.2608 262.119 29.5639 261.504 28.6523C260.897 27.7407 260.594 26.6231 260.594 25.2995C260.594 24.16 260.817 23.2221 261.263 22.4858C261.709 21.7495 262.311 21.1665 263.069 20.737C263.826 20.3075 264.674 19.9832 265.61 19.7641C266.546 19.5449 267.5 19.3784 268.472 19.2644C269.703 19.1242 270.701 19.0102 271.468 18.9226C272.235 18.8262 272.792 18.6728 273.14 18.4624C273.488 18.252 273.662 17.9102 273.662 17.4368V17.3448C273.662 16.1965 273.332 15.3068 272.672 14.6757C272.021 14.0446 271.049 13.729 269.756 13.729C268.41 13.729 267.349 14.0226 266.573 14.6099C265.806 15.1885 265.275 15.8327 264.981 16.5427L261.223 15.7012C261.669 14.4741 262.32 13.4836 263.176 12.7297C264.04 11.9671 265.035 11.4149 266.158 11.073C267.282 10.7224 268.463 10.5471 269.703 10.5471C270.523 10.5471 271.392 10.6435 272.311 10.8364C273.238 11.0205 274.103 11.3623 274.906 11.8619C275.717 12.3616 276.381 13.076 276.898 14.0051C277.416 14.9255 277.674 16.122 277.674 17.5946V31.0058H273.769V28.2447H273.608C273.35 28.7531 272.962 29.2527 272.445 29.7436C271.927 30.2345 271.263 30.6421 270.452 30.9664C269.64 31.2907 268.668 31.4529 267.536 31.4529ZM268.405 28.2973C269.511 28.2973 270.456 28.0825 271.241 27.653C272.034 27.2235 272.636 26.6625 273.046 25.9701C273.465 25.2688 273.675 24.5194 273.675 23.7217V21.1183C273.532 21.2586 273.256 21.3901 272.846 21.5128C272.445 21.6267 271.985 21.7275 271.468 21.8152C270.951 21.8941 270.447 21.9686 269.957 22.0387C269.466 22.1001 269.056 22.1527 268.726 22.1965C267.95 22.2929 267.242 22.4551 266.6 22.683C265.967 22.9109 265.458 23.2396 265.075 23.6691C264.7 24.0898 264.513 24.6508 264.513 25.3521C264.513 26.3251 264.879 27.0614 265.61 27.561C266.341 28.0519 267.273 28.2973 268.405 28.2973Z" fill="black"/>
<path d="M287 4.07816V31.0058H283.001V4.07816H287Z" fill="black"/>
</svg>
